<svg xmlns="http://www.w3.org/2000/svg" viewBox="0 0 900 900"><defs><radialGradient id="b"><stop stop-color="#a97645"/><stop offset="1" stop-color="#241912"/></radialGradient><filter id="n"><feTurbulence baseFrequency=".35" numOctaves="4"/><feBlend mode="multiply" in2="SourceGraphic"/></filter></defs><rect width="900" height="900" fill="url(#b)"/><path d="M190 760Q170 470 310 220Q440 80 590 210Q740 370 690 760Z" fill="#bb8a59" stroke="#e2bc7a" stroke-width="18"/><circle cx="450" cy="300" r="105" fill="#cba06e"/><path d="M370 295q80-85 160 0q-18-130-80-140q-62 15-80 140" fill="#403126"/><path d="M390 320q30 18 60 0m0 0q30 18 60 0M420 390q30 20 60 0" fill="none" stroke="#4c3327" stroke-width="13" stroke-linecap="round"/><path d="M300 690q150-240 300 0M260 720q190-105 380 0" fill="none" stroke="#69442e" stroke-width="30"/><rect width="900" height="900" filter="url(#n)" opacity=".18"/></svg>